<svg xmlns="http://www.w3.org/2000/svg" viewBox="0 0 256 256" fill="currentColor" id="Vinyl-Record--Streamline-Phosphor">
  <desc>
    Vinyl Record Streamline Icon: https://streamlinehq.com
  </desc>
  <path d="M128 2.56c-96.5638 0 -156.9161 104.5333 -108.6342 188.16 48.2818 83.6267 168.9865 83.6267 217.2684 0C247.6439 171.6507 253.44 150.0193 253.44 128 253.3669 58.7517 197.2483 2.6332 128 2.56Zm0 231.5815c-81.7078 0.0037 -132.7744 -88.4453 -91.9236 -159.2082 40.8507 -70.7628 142.9854 -70.7674 183.8425 -0.0082 9.3174 16.1365 14.2226 34.4416 14.2226 53.0749 -0.0664 58.5928 -47.5487 106.075 -106.1415 106.1415Zm0 -173.6861C90.7127 60.4953 60.4953 90.7127 60.4554 128c0 7.428 -8.041 12.0705 -14.4739 8.3565 -2.9854 -1.7237 -4.8246 -4.9092 -4.8246 -8.3565C41.2101 80.06 80.06 41.2101 128 41.1569c7.428 0 12.0705 8.0411 8.3565 14.4739 -1.7236 2.9853 -4.9093 4.8244 -8.3565 4.8246ZM214.8431 128c-0.0532 47.94 -38.9031 86.7899 -86.8431 86.8431 -7.428 -0.0003 -12.0705 -8.0416 -8.3563 -14.4742 1.7238 -2.9853 4.9091 -4.8243 8.3563 -4.8243 37.2873 -0.0399 67.5047 -30.2573 67.5446 -67.5446 0 -7.428 8.041 -12.0705 14.4739 -8.3565 2.9854 1.7237 4.8246 4.9092 4.8246 8.3565Zm-48.2462 0c0 -29.7119 -32.1641 -48.2819 -57.8954 -33.4259 -25.7312 14.856 -25.7312 51.9959 0 66.8518 5.867 3.3873 12.5239 5.1707 19.2985 5.171 21.3172 0.001 38.5969 -17.2797 38.5969 -38.5969Zm-57.8954 0c0 -14.856 16.0821 -24.1409 28.9477 -16.7129 12.8657 7.4279 12.8657 25.9979 0 33.4259 -2.9337 1.6938 -6.2616 2.5855 -9.6492 2.5855 -10.6582 0 -19.2985 -8.6402 -19.2985 -19.2985Z" stroke-width="1"></path>
</svg>