<svg xmlns="http://www.w3.org/2000/svg" viewBox="0 0 256 256" fill="currentColor" id="Battery-Low--Streamline-Phosphor">
  <desc>
    Battery Low Streamline Icon: https://streamlinehq.com
  </desc>
  <path d="M196.7897 55.1639H26.8387C13.4299 55.1639 2.56 66.0338 2.56 79.4426v97.1148c0 13.4092 10.8695 24.2793 24.2787 24.2787h169.951c13.4083 -0.0006 24.2787 -10.8703 24.2787 -24.2787V79.4426c0 -13.4084 -10.8704 -24.2781 -24.2787 -24.2787Zm8.0929 121.3935c0 4.4695 -3.6235 8.0927 -8.0929 8.0929H26.8387c-4.4697 0.0002 -8.0929 -3.6232 -8.0929 -8.0929V79.4426c0 -4.4697 3.6232 -8.0931 8.0929 -8.0929h169.951c4.4694 0.0002 8.0929 3.6234 8.0929 8.0929ZM59.2103 95.6284v64.7432c0 6.2299 -6.7441 10.1236 -12.1393 7.0087 -2.504 -1.4457 -4.0465 -4.1174 -4.0465 -7.0087V95.6284c0 -6.2299 6.7441 -10.1236 12.1394 -7.0087 2.5039 1.4457 4.0464 4.1174 4.0464 7.0087Zm194.2297 0v64.7432c0 6.2299 -6.7441 10.1236 -12.1394 7.0087 -2.5039 -1.4457 -4.0464 -4.1174 -4.0464 -7.0087V95.6284c0 -6.2299 6.7441 -10.1236 12.1394 -7.0087 2.5039 1.4457 4.0464 4.1174 4.0464 7.0087Z" stroke-width="1"></path>
</svg>